<?xml version="1.0" standalone="no"?>
<!DOCTYPE svg PUBLIC "-//W3C//DTD SVG 20010904//EN"
 "http://www.w3.org/TR/2001/REC-SVG-20010904/DTD/svg10.dtd">
<svg version="1.0" xmlns="http://www.w3.org/2000/svg"
 width="1701.000000pt" height="1701.000000pt" viewBox="0 0 1701.000000 1701.000000"
 preserveAspectRatio="xMidYMid meet">
<metadata>
Created by potrace 1.11, written by Peter Selinger 2001-2013
</metadata>
<g transform="translate(0.000000,1701.000000) scale(0.100000,-0.100000)"
fill="#000000" stroke="none">
<path d="M12675 13814 c-33 -2 -121 -11 -195 -20 -668 -77 -1350 -357 -1933
-792 l-152 -114 -120 36 c-457 136 -1095 186 -1671 131 -1780 -171 -3559
-1246 -4779 -2889 -114 -154 -355 -515 -355 -532 0 -30 40 -10 195 95 938 636
1955 1014 3005 1117 242 24 712 24 948 1 341 -35 702 -106 927 -184 157 -55
188 -70 181 -88 -7 -19 -387 -587 -534 -800 -1057 -1522 -2194 -2885 -3572
-4279 -168 -170 -291 -301 -275 -291 126 76 582 398 970 684 864 636 1882
1462 2554 2072 319 290 320 291 331 284 20 -13 8 -40 -86 -188 -702 -1105
-2089 -2926 -3022 -3970 -74 -82 -112 -132 -108 -142 11 -29 18 -25 226 124
568 406 1468 1123 2177 1733 1247 1074 2287 2137 3070 3138 49 63 96 116 104
118 27 5 186 -293 293 -548 358 -850 438 -1884 225 -2920 -98 -473 -261 -978
-469 -1445 -161 -364 -187 -416 -308 -620 -92 -156 -196 -314 -333 -507 -166
-233 -160 -248 40 -111 1065 731 1953 1745 2521 2881 414 828 663 1683 731
2502 18 220 15 650 -5 875 -63 680 -270 1340 -598 1902 -138 238 -247 541
-305 853 -13 73 -17 147 -17 320 0 195 3 238 22 327 70 322 231 595 478 814
91 81 285 214 383 264 37 18 73 41 81 50 31 37 -65 83 -217 105 -82 11 -320
19 -408 14z"/>
</g>
</svg>
